<?xml version="1.0" encoding="UTF-8"?>
<svg width="1147px" height="818px" viewBox="0 0 1147 818" version="1.1" xmlns="http://www.w3.org/2000/svg" xmlns:xlink="http://www.w3.org/1999/xlink">
    <!-- Generator: sketchtool 52.1 (67048) - http://www.bohemiancoding.com/sketch -->
    <title>C6E63B9B-9A9B-42A0-9BFE-CC105568F08B@1x</title>
    <desc>Created with sketchtool.</desc>
    <g id="Page-1" stroke="none" stroke-width="1" fill="none" fill-rule="evenodd">
        <g id="Study-Page" transform="translate(-173.000000, -9678.000000)">
            <g id="taskflow" transform="translate(174.000000, 9678.000000)">
                <g id="tiles/main-page" transform="translate(38.000000, 152.000000)">
                    <g id="main-page" transform="translate(-1.183333, 0.000000)">
                        <rect id="Rectangle-7" fill="#1787E0" x="0.991735537" y="0" width="142.183333" height="130" rx="5"></rect>
                        <path d="M0.991735537,14.9006623 L143.175069,14.9006623 L143.175069,124.998864 C143.175069,127.760915 140.941708,130 138.177275,130 L5.98952952,130 C3.22932412,130 0.991735537,127.752456 0.991735537,124.998864 L0.991735537,14.9006623 Z" id="Rectangle-7" fill="#E4F3FF"></path>
                        <ellipse id="Oval-4" fill="#55B4FF" cx="8.42975207" cy="7.45033113" rx="2.47933884" ry="2.48344371"></ellipse>
                        <ellipse id="Oval-4" fill="#55B4FF" cx="15.3719008" cy="7.45033113" rx="2.47933884" ry="2.48344371"></ellipse>
                        <ellipse id="Oval-4" fill="#55B4FF" cx="22.3140496" cy="7.45033113" rx="2.47933884" ry="2.48344371"></ellipse>
                        <text id="Page-Title" font-family="Roboto-Bold, Roboto" font-size="13" font-weight="bold" letter-spacing="0.2166667" fill="#1787E0">
                            <tspan x="36.9996462" y="70.9487859">Home Page</tspan>
                        </text>
                    </g>
                </g>
                <g id="tiles/main-page" transform="translate(38.000000, 698.000000)">
                    <g id="main-page" transform="translate(-1.183333, 0.000000)">
                        <rect id="Rectangle-7" fill="#1787E0" x="0.991735537" y="0" width="142.183333" height="120" rx="5"></rect>
                        <path d="M0.991735537,14.9006623 L143.175069,14.9006623 L143.175069,115.001545 C143.175069,117.762116 140.941708,120 138.177275,120 L5.98952952,120 C3.22932412,120 0.991735537,117.756228 0.991735537,115.001545 L0.991735537,14.9006623 Z" id="Rectangle-7" fill="#E4F3FF"></path>
                        <ellipse id="Oval-4" fill="#55B4FF" cx="8.42975207" cy="7.45033113" rx="2.47933884" ry="2.48344371"></ellipse>
                        <ellipse id="Oval-4" fill="#55B4FF" cx="15.3719008" cy="7.45033113" rx="2.47933884" ry="2.48344371"></ellipse>
                        <ellipse id="Oval-4" fill="#55B4FF" cx="22.3140496" cy="7.45033113" rx="2.47933884" ry="2.48344371"></ellipse>
                        <text id="Page-Title" font-family="Roboto-Bold, Roboto" font-size="13" font-weight="bold" letter-spacing="0.2166667" fill="#1787E0">
                            <tspan x="36.5961469" y="64.1649007">Quote Page</tspan>
                        </text>
                    </g>
                </g>
                <g id="tiles/main-page" transform="translate(324.000000, 544.000000)">
                    <g id="main-page" transform="translate(-1.183333, 0.000000)">
                        <rect id="Rectangle-7" fill="#1787E0" x="0.991735537" y="0" width="142.183333" height="120" rx="5"></rect>
                        <path d="M0.991735537,14.9006623 L143.175069,14.9006623 L143.175069,115.001545 C143.175069,117.762116 140.941708,120 138.177275,120 L5.98952952,120 C3.22932412,120 0.991735537,117.756228 0.991735537,115.001545 L0.991735537,14.9006623 Z" id="Rectangle-7" fill="#E4F3FF"></path>
                        <ellipse id="Oval-4" fill="#55B4FF" cx="8.42975207" cy="7.45033113" rx="2.47933884" ry="2.48344371"></ellipse>
                        <ellipse id="Oval-4" fill="#55B4FF" cx="15.3719008" cy="7.45033113" rx="2.47933884" ry="2.48344371"></ellipse>
                        <ellipse id="Oval-4" fill="#55B4FF" cx="22.3140496" cy="7.45033113" rx="2.47933884" ry="2.48344371"></ellipse>
                        <text id="Page-Title" font-family="Roboto-Bold, Roboto" font-size="13" font-weight="bold" letter-spacing="0.2166667" fill="#1787E0">
                            <tspan x="29.0252972" y="64.1649007">Quote Results </tspan>
                            <tspan x="56.4382856" y="79.1649007">Page</tspan>
                        </text>
                    </g>
                </g>
                <g id="tiles/main-page" transform="translate(326.000000, 0.000000)">
                    <g id="main-page" transform="translate(-1.183333, 0.000000)">
                        <rect id="Rectangle-7" fill="#1787E0" x="0.991735537" y="0" width="142.183333" height="120" rx="5"></rect>
                        <path d="M0.991735537,14.9006623 L143.175069,14.9006623 L143.175069,115.001545 C143.175069,117.762116 140.941708,120 138.177275,120 L5.98952952,120 C3.22932412,120 0.991735537,117.756228 0.991735537,115.001545 L0.991735537,14.9006623 Z" id="Rectangle-7" fill="#E4F3FF"></path>
                        <ellipse id="Oval-4" fill="#55B4FF" cx="8.42975207" cy="7.45033113" rx="2.47933884" ry="2.48344371"></ellipse>
                        <ellipse id="Oval-4" fill="#55B4FF" cx="15.3719008" cy="7.45033113" rx="2.47933884" ry="2.48344371"></ellipse>
                        <ellipse id="Oval-4" fill="#55B4FF" cx="22.3140496" cy="7.45033113" rx="2.47933884" ry="2.48344371"></ellipse>
                        <text id="Page-Title" font-family="Roboto-Bold, Roboto" font-size="13" font-weight="bold" letter-spacing="0.2166667" fill="#1787E0">
                            <tspan x="46.6711469" y="64.1649007">Account </tspan>
                            <tspan x="29.2538128" y="79.1649007">Creation Page</tspan>
                        </text>
                    </g>
                </g>
                <g id="tiles/main-page" transform="translate(592.000000, 161.000000)">
                    <g id="main-page" transform="translate(-1.183333, 0.000000)">
                        <rect id="Rectangle-7" fill="#1787E0" x="0.991735537" y="0" width="142.183333" height="120" rx="5"></rect>
                        <path d="M0.991735537,14.9006623 L143.175069,14.9006623 L143.175069,115.001545 C143.175069,117.762116 140.941708,120 138.177275,120 L5.98952952,120 C3.22932412,120 0.991735537,117.756228 0.991735537,115.001545 L0.991735537,14.9006623 Z" id="Rectangle-7" fill="#E4F3FF"></path>
                        <ellipse id="Oval-4" fill="#55B4FF" cx="8.42975207" cy="7.45033113" rx="2.47933884" ry="2.48344371"></ellipse>
                        <ellipse id="Oval-4" fill="#55B4FF" cx="15.3719008" cy="7.45033113" rx="2.47933884" ry="2.48344371"></ellipse>
                        <ellipse id="Oval-4" fill="#55B4FF" cx="22.3140496" cy="7.45033113" rx="2.47933884" ry="2.48344371"></ellipse>
                        <text id="Page-Title" font-family="Roboto-Bold, Roboto" font-size="13" font-weight="bold" letter-spacing="0.2166667" fill="#1787E0">
                            <tspan x="50.8229373" y="64.1649007">Secure </tspan>
                            <tspan x="26.6449261" y="79.1649007">Checkout page</tspan>
                        </text>
                    </g>
                </g>
                <g id="tiles/modal" transform="translate(61.000000, 351.000000)">
                    <g id="modal">
                        <path d="M1,5.00504654 L1,99.4949535 C1,101.713074 2.78899937,103.5 5.0040358,103.5 L88.9959642,103.5 C91.213205,103.5 93,101.7105 93,99.4949535 L93,5.00504654 C93,2.78692597 91.2110006,1 88.9959642,1 L5.0040358,1 C2.78679497,1 1,2.78949985 1,5.00504654 Z" id="Rectangle-8" stroke="#1787E0" stroke-width="2" fill="#E4F3FF"></path>
                        <path d="M85.1875,10.0570277 L86.2755659,8.78375908 C86.7572103,8.22013266 87.5223694,8.22441948 87.9965646,8.77932879 L87.6726645,8.40029672 C88.1505421,8.95951519 88.1451647,9.85687529 87.6688786,10.4142314 L86.5808127,11.6875 L87.6688786,12.9607686 C88.1451647,13.5181247 88.1505421,14.4154848 87.6726645,14.9747033 L87.9965646,14.5956712 C87.5223694,15.1505805 86.7572103,15.1548673 86.2755659,14.5912409 L85.1875,13.3179723 L84.0994341,14.5912409 C83.6177897,15.1548673 82.8526306,15.1505805 82.3784354,14.5956712 L82.7023355,14.9747033 C82.2244579,14.4154848 82.2298353,13.5181247 82.7061214,12.9607686 L83.7941873,11.6875 L82.7061214,10.4142314 C82.2298353,9.85687529 82.2244579,8.95951519 82.7023355,8.40029672 L82.3784354,8.77932879 C82.8526306,8.22441948 83.6177897,8.22013266 84.0994341,8.78375908 L85.1875,10.0570277 Z" id="Combined-Shape-Copy" fill="#1787E0"></path>
                        <text id="Modal" font-family="LucidaGrande, Lucida Grande" font-size="11" font-weight="normal" letter-spacing="0.1833334" fill="#1787E0">
                            <tspan x="24.6261716" y="35.75">Click on </tspan>
                            <tspan x="22.7785153" y="48.75">"Request </tspan>
                            <tspan x="28.1180987" y="61.75">Quote" </tspan>
                            <tspan x="28.6689939" y="74.75">button</tspan>
                        </text>
                    </g>
                </g>
                <g id="tiles/modal" transform="translate(57.000000, 531.000000)">
                    <g id="modal">
                        <path d="M1,5.00714805 L1,89.9928519 C1,92.2125007 2.78892954,94 5.0040358,94 L88.9959642,94 C91.2131109,94 93,92.2096544 93,89.9928519 L93,5.00714805 C93,2.78749926 91.2110705,1 88.9959642,1 L5.0040358,1 C2.78688913,1 1,2.79034556 1,5.00714805 Z" id="Rectangle-8" stroke="#1787E0" stroke-width="2" fill="#E4F3FF"></path>
                        <path d="M85.1875,9.14275245 L86.3794243,7.87474792 C86.790589,7.43733857 87.4790648,7.43067624 87.899841,7.87831057 L87.7693881,7.7395308 C88.1939888,8.19123368 88.1916637,8.91132874 87.772737,9.35699548 L86.5808127,10.625 L87.772737,11.8930045 C88.1916637,12.3386713 88.1939888,13.0587663 87.7693881,13.5104692 L87.899841,13.3716894 C87.4790648,13.8193238 86.790589,13.8126614 86.3794243,13.3752521 L85.1875,12.1072476 L83.9955757,13.3752521 C83.584411,13.8126614 82.8959352,13.8193238 82.475159,13.3716894 L82.6056119,13.5104692 C82.1810112,13.0587663 82.1833363,12.3386713 82.602263,11.8930045 L83.7941873,10.625 L82.602263,9.35699548 C82.1833363,8.91132874 82.1810112,8.19123368 82.6056119,7.7395308 L82.475159,7.87831057 C82.8959352,7.43067624 83.584411,7.43733857 83.9955757,7.87474792 L85.1875,9.14275245 Z" id="Combined-Shape-Copy" fill="#1787E0"></path>
                        <text id="Modal" font-family="LucidaGrande, Lucida Grande" font-size="11" font-weight="normal" letter-spacing="0.1833334" fill="#1787E0">
                            <tspan x="26.5148272" y="33.5">Choose </tspan>
                            <tspan x="20.2805986" y="46.5">insurance </tspan>
                            <tspan x="35.1767902" y="59.5">type</tspan>
                        </text>
                    </g>
                </g>
                <g id="tiles/modal" transform="translate(347.000000, 734.000000)">
                    <g id="modal">
                        <path d="M1,5.00301726 L1,76.6969827 C1,78.9087568 2.7920102,80.7 5.0040358,80.7 L88.9959642,80.7 C91.2132959,80.7 93,78.9113167 93,76.6969827 L93,5.00301726 C93,2.79124319 91.2079898,1 88.9959642,1 L5.0040358,1 C2.78670406,1 1,2.78868329 1,5.00301726 Z" id="Rectangle-8" stroke="#1787E0" stroke-width="2" fill="#E4F3FF"></path>
                        <path d="M85.1875,7.86276711 L86.3567765,6.79300353 C86.790589,6.39611117 87.4899692,6.40035799 87.9241968,6.79763005 L87.7450323,6.63371353 C88.1796793,7.03136931 88.1815239,7.67301952 87.7500892,8.06773642 L86.5808127,9.1375 L87.7500892,10.2072636 C88.1815239,10.6019805 88.1796793,11.2436307 87.7450323,11.6412865 L87.9241968,11.4773699 C87.4899692,11.874642 86.790589,11.8788888 86.3567765,11.4819965 L85.1875,10.4122329 L84.0182235,11.4819965 C83.584411,11.8788888 82.8850308,11.874642 82.4508032,11.4773699 L82.6299677,11.6412865 C82.1953207,11.2436307 82.1934761,10.6019805 82.6249108,10.2072636 L83.7941873,9.1375 L82.6249108,8.06773642 C82.1934761,7.67301952 82.1953207,7.03136931 82.6299677,6.63371353 L82.4508032,6.79763005 C82.8850308,6.40035799 83.584411,6.39611117 84.0182235,6.79300353 L85.1875,7.86276711 Z" id="Combined-Shape-Copy" fill="#1787E0"></path>
                        <text id="Modal" font-family="LucidaGrande, Lucida Grande" font-size="11" font-weight="normal" letter-spacing="0.1833334" fill="#1787E0">
                            <tspan x="26.7941241" y="30.35">Answer </tspan>
                            <tspan x="23.366292" y="43.35">series of </tspan>
                            <tspan x="20.1896481" y="56.35">questions</tspan>
                        </text>
                    </g>
                </g>
                <g id="tiles/modal" transform="translate(347.000000, 363.000000)">
                    <g id="modal">
                        <path d="M1,5.00714805 L1,89.9928519 C1,92.2125007 2.78892954,94 5.0040358,94 L88.9959642,94 C91.2131109,94 93,92.2096544 93,89.9928519 L93,5.00714805 C93,2.78749926 91.2110705,1 88.9959642,1 L5.0040358,1 C2.78688913,1 1,2.79034556 1,5.00714805 Z" id="Rectangle-8" stroke="#1787E0" stroke-width="2" fill="#E4F3FF"></path>
                        <path d="M85.1875,9.14275245 L86.3794243,7.87474792 C86.790589,7.43733857 87.4790648,7.43067624 87.899841,7.87831057 L87.7693881,7.7395308 C88.1939888,8.19123368 88.1916637,8.91132874 87.772737,9.35699548 L86.5808127,10.625 L87.772737,11.8930045 C88.1916637,12.3386713 88.1939888,13.0587663 87.7693881,13.5104692 L87.899841,13.3716894 C87.4790648,13.8193238 86.790589,13.8126614 86.3794243,13.3752521 L85.1875,12.1072476 L83.9955757,13.3752521 C83.584411,13.8126614 82.8959352,13.8193238 82.475159,13.3716894 L82.6056119,13.5104692 C82.1810112,13.0587663 82.1833363,12.3386713 82.602263,11.8930045 L83.7941873,10.625 L82.602263,9.35699548 C82.1833363,8.91132874 82.1810112,8.19123368 82.6056119,7.7395308 L82.475159,7.87831057 C82.8959352,7.43067624 83.584411,7.43733857 83.9955757,7.87474792 L85.1875,9.14275245 Z" id="Combined-Shape-Copy" fill="#1787E0"></path>
                        <text id="Modal" font-family="LucidaGrande, Lucida Grande" font-size="11" font-weight="normal" letter-spacing="0.1833334" fill="#1787E0">
                            <tspan x="28.0778155" y="33.5">Review </tspan>
                            <tspan x="18.5564775" y="46.5">suggested </tspan>
                            <tspan x="24.5110512" y="59.5">quote(s)</tspan>
                        </text>
                    </g>
                </g>
                <g id="tiles/modal" transform="translate(347.000000, 196.000000)">
                    <g id="modal">
                        <path d="M1,5.00301726 L1,76.6969827 C1,78.9087568 2.7920102,80.7 5.0040358,80.7 L88.9959642,80.7 C91.2132959,80.7 93,78.9113167 93,76.6969827 L93,5.00301726 C93,2.79124319 91.2079898,1 88.9959642,1 L5.0040358,1 C2.78670406,1 1,2.78868329 1,5.00301726 Z" id="Rectangle-8" stroke="#1787E0" stroke-width="2" fill="#E4F3FF"></path>
                        <path d="M85.1875,7.86276711 L86.3567765,6.79300353 C86.790589,6.39611117 87.4899692,6.40035799 87.9241968,6.79763005 L87.7450323,6.63371353 C88.1796793,7.03136931 88.1815239,7.67301952 87.7500892,8.06773642 L86.5808127,9.1375 L87.7500892,10.2072636 C88.1815239,10.6019805 88.1796793,11.2436307 87.7450323,11.6412865 L87.9241968,11.4773699 C87.4899692,11.874642 86.790589,11.8788888 86.3567765,11.4819965 L85.1875,10.4122329 L84.0182235,11.4819965 C83.584411,11.8788888 82.8850308,11.874642 82.4508032,11.4773699 L82.6299677,11.6412865 C82.1953207,11.2436307 82.1934761,10.6019805 82.6249108,10.2072636 L83.7941873,9.1375 L82.6249108,8.06773642 C82.1934761,7.67301952 82.1953207,7.03136931 82.6299677,6.63371353 L82.4508032,6.79763005 C82.8850308,6.40035799 83.584411,6.39611117 84.0182235,6.79300353 L85.1875,7.86276711 Z" id="Combined-Shape-Copy" fill="#1787E0"></path>
                        <text id="Modal" font-family="LucidaGrande, Lucida Grande" font-size="11" font-weight="normal" letter-spacing="0.1833334" fill="#1787E0">
                            <tspan x="25.8427243" y="30.35">Select a </tspan>
                            <tspan x="31.1669106" y="43.35">quote</tspan>
                        </text>
                    </g>
                </g>
                <g id="tiles/modal" transform="translate(613.000000, 0.000000)">
                    <g id="modal">
                        <path d="M1,5.00301726 L1,76.6969827 C1,78.9087568 2.7920102,80.7 5.0040358,80.7 L88.9959642,80.7 C91.2132959,80.7 93,78.9113167 93,76.6969827 L93,5.00301726 C93,2.79124319 91.2079898,1 88.9959642,1 L5.0040358,1 C2.78670406,1 1,2.78868329 1,5.00301726 Z" id="Rectangle-8" stroke="#1787E0" stroke-width="2" fill="#E4F3FF"></path>
                        <path d="M85.1875,7.86276711 L86.3567765,6.79300353 C86.790589,6.39611117 87.4899692,6.40035799 87.9241968,6.79763005 L87.7450323,6.63371353 C88.1796793,7.03136931 88.1815239,7.67301952 87.7500892,8.06773642 L86.5808127,9.1375 L87.7500892,10.2072636 C88.1815239,10.6019805 88.1796793,11.2436307 87.7450323,11.6412865 L87.9241968,11.4773699 C87.4899692,11.874642 86.790589,11.8788888 86.3567765,11.4819965 L85.1875,10.4122329 L84.0182235,11.4819965 C83.584411,11.8788888 82.8850308,11.874642 82.4508032,11.4773699 L82.6299677,11.6412865 C82.1953207,11.2436307 82.1934761,10.6019805 82.6249108,10.2072636 L83.7941873,9.1375 L82.6249108,8.06773642 C82.1934761,7.67301952 82.1953207,7.03136931 82.6299677,6.63371353 L82.4508032,6.79763005 C82.8850308,6.40035799 83.584411,6.39611117 84.0182235,6.79300353 L85.1875,7.86276711 Z" id="Combined-Shape-Copy" fill="#1787E0"></path>
                        <text id="Modal" font-family="LucidaGrande, Lucida Grande" font-size="11" font-weight="normal" letter-spacing="0.1833334" fill="#1787E0">
                            <tspan x="20.6136064" y="30.35">Create an </tspan>
                            <tspan x="25.4244952" y="43.35">account</tspan>
                        </text>
                    </g>
                </g>
                <g id="tiles/modal" transform="translate(618.000000, 357.000000)">
                    <g id="modal">
                        <path d="M1,5.00301726 L1,76.6969827 C1,78.9087568 2.7920102,80.7 5.0040358,80.7 L88.9959642,80.7 C91.2132959,80.7 93,78.9113167 93,76.6969827 L93,5.00301726 C93,2.79124319 91.2079898,1 88.9959642,1 L5.0040358,1 C2.78670406,1 1,2.78868329 1,5.00301726 Z" id="Rectangle-8" stroke="#1787E0" stroke-width="2" fill="#E4F3FF"></path>
                        <path d="M85.1875,7.86276711 L86.3567765,6.79300353 C86.790589,6.39611117 87.4899692,6.40035799 87.9241968,6.79763005 L87.7450323,6.63371353 C88.1796793,7.03136931 88.1815239,7.67301952 87.7500892,8.06773642 L86.5808127,9.1375 L87.7500892,10.2072636 C88.1815239,10.6019805 88.1796793,11.2436307 87.7450323,11.6412865 L87.9241968,11.4773699 C87.4899692,11.874642 86.790589,11.8788888 86.3567765,11.4819965 L85.1875,10.4122329 L84.0182235,11.4819965 C83.584411,11.8788888 82.8850308,11.874642 82.4508032,11.4773699 L82.6299677,11.6412865 C82.1953207,11.2436307 82.1934761,10.6019805 82.6249108,10.2072636 L83.7941873,9.1375 L82.6249108,8.06773642 C82.1934761,7.67301952 82.1953207,7.03136931 82.6299677,6.63371353 L82.4508032,6.79763005 C82.8850308,6.40035799 83.584411,6.39611117 84.0182235,6.79300353 L85.1875,7.86276711 Z" id="Combined-Shape-Copy" fill="#1787E0"></path>
                        <text id="Modal" font-family="LucidaGrande, Lucida Grande" font-size="11" font-weight="normal" letter-spacing="0.1833334" fill="#1787E0">
                            <tspan x="21.553906" y="30.35">Choose a </tspan>
                            <tspan x="23.6463051" y="43.35">Payment </tspan>
                            <tspan x="25.9404783" y="56.35">method</tspan>
                        </text>
                    </g>
                </g>
                <g id="tiles/modal" transform="translate(617.000000, 520.000000)">
                    <g id="modal">
                        <path d="M1,4.99013296 L1,89.059867 C1,91.2642285 2.79126198,93.05 5.0040358,93.05 L88.9959642,93.05 C91.2138731,93.05 93,91.2664994 93,89.059867 L93,4.99013296 C93,2.78577149 91.208738,1 88.9959642,1 L5.0040358,1 C2.78612693,1 1,2.7835006 1,4.99013296 Z" id="Rectangle-8" stroke="#1787E0" stroke-width="2" fill="#E4F3FF"></path>
                        <path d="M85.1875,9.05132492 L86.3906532,7.78417417 C86.8067805,7.34591252 87.4717765,7.34869358 87.8835623,7.78238286 L87.7856668,7.6792801 C88.1939888,8.10932134 88.1966911,8.81692065 87.7839659,9.25159924 L86.5808127,10.51875 L87.7839659,11.7859008 C88.1966911,12.2205794 88.1939888,12.9281787 87.7856668,13.3582199 L87.8835623,13.2551171 C87.4717765,13.6888064 86.8067805,13.6915875 86.3906532,13.2533258 L85.1875,11.9861751 L83.9843468,13.2533258 C83.5682195,13.6915875 82.9032235,13.6888064 82.4914377,13.2551171 L82.5893332,13.3582199 C82.1810112,12.9281787 82.1783089,12.2205794 82.5910341,11.7859008 L83.7941873,10.51875 L82.5910341,9.25159924 C82.1783089,8.81692065 82.1810112,8.10932134 82.5893332,7.6792801 L82.4914377,7.78238286 C82.9032235,7.34869358 83.5682195,7.34591252 83.9843468,7.78417417 L85.1875,9.05132492 Z" id="Combined-Shape-Copy" fill="#1787E0"></path>
                        <text id="Modal" font-family="LucidaGrande, Lucida Grande" font-size="11" font-weight="normal" letter-spacing="0.1833334" fill="#1787E0">
                            <tspan x="31.8049965" y="33.275">Fill in </tspan>
                            <tspan x="11.016715" y="46.275">required info </tspan>
                            <tspan x="25.3331866" y="59.275">and pay</tspan>
                        </text>
                    </g>
                </g>
                <g id="tiles/modal" transform="translate(593.000000, 695.000000)">
                    <g id="modal">
                        <path d="M1,4.99416661 L1,117.555833 C1,119.764463 2.78618151,121.55 4.99302029,121.55 L133.00698,121.55 C135.210858,121.55 137,119.760985 137,117.555833 L137,4.99416661 C137,2.78553748 135.213818,1 133.00698,1 L4.99302029,1 C2.78914231,1 1,2.78901541 1,4.99416661 Z" id="Rectangle-8" stroke="#1787E0" stroke-width="2" fill="#E4F3FF"></path>
                        <path d="M125.0625,11.7941507 L126.795768,10.1739219 C127.415971,9.59416676 128.432054,9.59056627 129.05638,10.1741749 L128.840999,9.97284049 C129.465811,10.5569035 129.465446,11.5025523 128.84127,12.0860212 L127.108002,13.70625 L128.84127,15.3264788 C129.465446,15.9099477 129.465811,16.8555965 128.840999,17.4396595 L129.05638,17.2383251 C128.432054,17.8219337 127.415971,17.8183332 126.795768,17.2385781 L125.0625,15.6183493 L123.329232,17.2385781 C122.709029,17.8183332 121.692946,17.8219337 121.06862,17.2383251 L121.284001,17.4396595 C120.659189,16.8555965 120.659554,15.9099477 121.28373,15.3264788 L123.016998,13.70625 L121.28373,12.0860212 C120.659554,11.5025523 120.659189,10.5569035 121.284001,9.97284049 L121.06862,10.1741749 C121.692946,9.59056627 122.709029,9.59416676 123.329232,10.1739219 L125.0625,11.7941507 Z" id="Combined-Shape-Copy" fill="#1787E0"></path>
                        <text id="Modal" font-family="LucidaGrande, Lucida Grande" font-size="11" font-weight="normal" letter-spacing="0.1833334" fill="#1787E0">
                            <tspan x="22.6873855" y="40.025">See confirmation </tspan>
                            <tspan x="18.00039" y="53.025">message &amp; receive </tspan>
                            <tspan x="54.1256509" y="66.025">email</tspan>
                        </text>
                    </g>
                </g>
                <g id="arrows/arrow-1" transform="translate(105.477398, 112.586142) rotate(-270.000000) translate(-105.477398, -112.586142) translate(81.891256, 109.108744)">
                    <g id="arrow-1">
                        <path d="M1,3.5 L45.8863636,3.5" id="Line" stroke="#1787E0" stroke-linecap="square"></path>
                        <circle id="Oval" stroke="#1787E0" fill="#FFFFFF" cx="2.5" cy="3.5" r="2.5"></circle>
                        <polygon id="Triangle" fill="#1787E0" points="44 6 44 1 47 3.5"></polygon>
                    </g>
                </g>
                <g id="arrows/arrow-1" transform="translate(107.500000, 313.500000) rotate(-270.000000) translate(-107.500000, -313.500000) translate(84.000000, 308.000000)">
                    <g id="arrow-1">
                        <path d="M1,5.5 L45.8863636,5.5" id="Line" stroke="#1787E0" stroke-linecap="square"></path>
                        <circle id="Oval" stroke="#1787E0" fill="#FFFFFF" cx="2.5" cy="5.5" r="2.5"></circle>
                        <polygon id="Triangle" fill="#1787E0" points="44 8 44 3 47 5.5"></polygon>
                    </g>
                </g>
                <g id="arrows/arrow-1" transform="translate(107.500000, 493.500000) rotate(-270.000000) translate(-107.500000, -493.500000) translate(84.000000, 488.000000)">
                    <g id="arrow-1">
                        <path d="M1,5.5 L45.8863636,5.5" id="Line" stroke="#1787E0" stroke-linecap="square"></path>
                        <circle id="Oval" stroke="#1787E0" fill="#FFFFFF" cx="2.5" cy="5.5" r="2.5"></circle>
                        <polygon id="Triangle" fill="#1787E0" points="44 8 44 3 47 5.5"></polygon>
                    </g>
                </g>
                <g id="arrows/arrow-1" transform="translate(107.650772, 660.299625) rotate(-270.000000) translate(-107.650772, -660.299625) translate(85.351147, 654.648853)">
                    <g id="arrow-1">
                        <path d="M1,5.5 L43.8914141,5.5" id="Line" stroke="#1787E0" stroke-linecap="square"></path>
                        <circle id="Oval" stroke="#1787E0" fill="#FFFFFF" cx="2.5" cy="5.5" r="2.5"></circle>
                        <polygon id="Triangle" fill="#1787E0" points="42 8 42 3 45 5.5"></polygon>
                    </g>
                </g>
                <g id="arrows/arrow-1" transform="translate(396.650772, 697.299625) scale(-1, 1) rotate(-90.000000) translate(-396.650772, -697.299625) translate(374.351147, 691.648853)">
                    <g id="arrow-1">
                        <path d="M1,5.5 L43.8914141,5.5" id="Line" stroke="#1787E0" stroke-linecap="square"></path>
                        <circle id="Oval" stroke="#1787E0" fill="#FFFFFF" cx="2.5" cy="5.5" r="2.5"></circle>
                        <polygon id="Triangle" fill="#1787E0" points="42 8 42 3 45 5.5"></polygon>
                    </g>
                </g>
                <g id="arrows/arrow-1" transform="translate(396.650772, 494.299625) scale(-1, 1) rotate(-90.000000) translate(-396.650772, -494.299625) translate(374.351147, 488.648853)">
                    <g id="arrow-1">
                        <path d="M1,5.5 L43.8914141,5.5" id="Line" stroke="#1787E0" stroke-linecap="square"></path>
                        <circle id="Oval" stroke="#1787E0" fill="#FFFFFF" cx="2.5" cy="5.5" r="2.5"></circle>
                        <polygon id="Triangle" fill="#1787E0" points="42 8 42 3 45 5.5"></polygon>
                    </g>
                </g>
                <g id="arrows/arrow-1" transform="translate(396.650772, 317.299625) scale(-1, 1) rotate(-90.000000) translate(-396.650772, -317.299625) translate(374.351147, 311.648853)">
                    <g id="arrow-1">
                        <path d="M1,5.5 L43.8914141,5.5" id="Line" stroke="#1787E0" stroke-linecap="square"></path>
                        <circle id="Oval" stroke="#1787E0" fill="#FFFFFF" cx="2.5" cy="5.5" r="2.5"></circle>
                        <polygon id="Triangle" fill="#1787E0" points="42 8 42 3 45 5.5"></polygon>
                    </g>
                </g>
                <g id="arrows/arrow-1" transform="translate(396.650772, 150.299625) scale(-1, 1) rotate(-90.000000) translate(-396.650772, -150.299625) translate(374.351147, 144.648853)">
                    <g id="arrow-1">
                        <path d="M1,5.5 L43.8914141,5.5" id="Line" stroke="#1787E0" stroke-linecap="square"></path>
                        <circle id="Oval" stroke="#1787E0" fill="#FFFFFF" cx="2.5" cy="5.5" r="2.5"></circle>
                        <polygon id="Triangle" fill="#1787E0" points="42 8 42 3 45 5.5"></polygon>
                    </g>
                </g>
                <ellipse id="Oval" stroke="#1787E0" stroke-width="2" fill="#E4F3FF" fill-rule="nonzero" cx="1035.5" cy="755.5" rx="109.5" ry="40.5"></ellipse>
                <text id="End-of-Transaction" font-family="LucidaGrande, Lucida Grande" font-size="11" font-weight="normal" letter-spacing="0.1833334" fill="#1787E0">
                    <tspan x="984.83706" y="757">End of Transaction</tspan>
                </text>
                <ellipse id="Oval" stroke="#1787E0" stroke-width="2" fill="#E4F3FF" fill-rule="nonzero" cx="109.5" cy="42.5" rx="109.5" ry="40.5"></ellipse>
                <text id="Google-Search-for-In" font-family="LucidaGrande, Lucida Grande" font-size="11" font-weight="normal" letter-spacing="0.1833334" fill="#1787E0">
                    <tspan x="32.4961905" y="41">Google Search for Insurance</tspan>
                </text>
                <g id="arrows/arrow-1" transform="translate(185.000000, 752.000000)">
                    <g id="arrow-1">
                        <path d="M1,3 L140.646465,3" id="Line" stroke="#1787E0" stroke-linecap="square"></path>
                        <circle id="Oval" stroke="#1787E0" fill="#FFFFFF" cx="2.5" cy="3" r="2.5"></circle>
                        <polygon id="Triangle" fill="#1787E0" points="139 5.5 139 0.5 142 3"></polygon>
                    </g>
                </g>
                <g id="arrows/arrow-1" transform="translate(764.000000, 755.000000)">
                    <g id="arrow-1">
                        <path d="M1,3 L140.646465,3" id="Line" stroke="#1787E0" stroke-linecap="square"></path>
                        <circle id="Oval" stroke="#1787E0" fill="#FFFFFF" cx="2.5" cy="3" r="2.5"></circle>
                        <polygon id="Triangle" fill="#1787E0" points="139 5.5 139 0.5 142 3"></polygon>
                    </g>
                </g>
                <g id="arrows/arrow-1" transform="translate(476.000000, 62.000000)">
                    <g id="arrow-1">
                        <path d="M1,3 L126.681818,3" id="Line" stroke="#1787E0" stroke-linecap="square"></path>
                        <circle id="Oval" stroke="#1787E0" fill="#FFFFFF" cx="2.5" cy="3" r="2.5"></circle>
                        <polygon id="Triangle" fill="#1787E0" points="125 5.5 125 0.5 128 3"></polygon>
                    </g>
                </g>
                <g id="arrows/arrow-1" transform="translate(666.477398, 126.586142) rotate(-270.000000) translate(-666.477398, -126.586142) translate(642.891256, 123.108744)">
                    <g id="arrow-1">
                        <path d="M1,3.5 L45.8863636,3.5" id="Line" stroke="#1787E0" stroke-linecap="square"></path>
                        <circle id="Oval" stroke="#1787E0" fill="#FFFFFF" cx="2.5" cy="3.5" r="2.5"></circle>
                        <polygon id="Triangle" fill="#1787E0" points="44 6 44 1 47 3.5"></polygon>
                    </g>
                </g>
                <g id="arrows/arrow-1" transform="translate(667.477398, 315.586142) rotate(-270.000000) translate(-667.477398, -315.586142) translate(643.891256, 312.108744)">
                    <g id="arrow-1">
                        <path d="M1,3.5 L45.8863636,3.5" id="Line" stroke="#1787E0" stroke-linecap="square"></path>
                        <circle id="Oval" stroke="#1787E0" fill="#FFFFFF" cx="2.5" cy="3.5" r="2.5"></circle>
                        <polygon id="Triangle" fill="#1787E0" points="44 6 44 1 47 3.5"></polygon>
                    </g>
                </g>
                <g id="arrows/arrow-1" transform="translate(668.477398, 476.586142) rotate(-270.000000) translate(-668.477398, -476.586142) translate(644.891256, 473.108744)">
                    <g id="arrow-1">
                        <path d="M1,3.5 L45.8863636,3.5" id="Line" stroke="#1787E0" stroke-linecap="square"></path>
                        <circle id="Oval" stroke="#1787E0" fill="#FFFFFF" cx="2.5" cy="3.5" r="2.5"></circle>
                        <polygon id="Triangle" fill="#1787E0" points="44 6 44 1 47 3.5"></polygon>
                    </g>
                </g>
                <g id="arrows/arrow-1" transform="translate(666.477398, 651.586142) rotate(-270.000000) translate(-666.477398, -651.586142) translate(642.891256, 648.108744)">
                    <g id="arrow-1">
                        <path d="M1,3.5 L45.8863636,3.5" id="Line" stroke="#1787E0" stroke-linecap="square"></path>
                        <circle id="Oval" stroke="#1787E0" fill="#FFFFFF" cx="2.5" cy="3.5" r="2.5"></circle>
                        <polygon id="Triangle" fill="#1787E0" points="44 6 44 1 47 3.5"></polygon>
                    </g>
                </g>
            </g>
        </g>
    </g>
</svg>