<?xml version="1.0" encoding="UTF-8"?>
<svg width="1117px" height="375px" viewBox="0 0 1117 375" version="1.1" xmlns="http://www.w3.org/2000/svg" xmlns:xlink="http://www.w3.org/1999/xlink">
    <!-- Generator: sketchtool 52.4 (67378) - http://www.bohemiancoding.com/sketch -->
    <title>5F5D7144-FB67-4AA7-B934-0AEE5BC535A2@1x</title>
    <desc>Created with sketchtool.</desc>
    <defs>
        <rect id="path-1" x="1" y="0" width="1087" height="345"></rect>
        <filter x="-2.3%" y="-5.8%" width="104.6%" height="114.5%" filterUnits="objectBoundingBox" id="filter-2">
            <feOffset dx="0" dy="5" in="SourceAlpha" result="shadowOffsetOuter1"></feOffset>
            <feGaussianBlur stdDeviation="7.5" in="shadowOffsetOuter1" result="shadowBlurOuter1"></feGaussianBlur>
            <feColorMatrix values="0 0 0 0 0.550761334   0 0 0 0 0.557581872   0 0 0 0 0.567522321  0 0 0 0.402400362 0" type="matrix" in="shadowBlurOuter1"></feColorMatrix>
        </filter>
        <polygon id="path-3" points="0.84985 0 8.84985 0 8.84985 14.5117188 0.84985 14.5117188"></polygon>
        <polygon id="path-5" points="0.28931 0 4.28931 0 4.28931 14.359375 0.28931 14.359375"></polygon>
        <polygon id="path-7" points="0.69995 0 311.69995 0 311.69995 13.5640564 0.69995 13.5640564"></polygon>
        <polygon id="path-9" points="0.825 0 4.825 0 4.825 13.5640564 0.825 13.5640564"></polygon>
        <polygon id="path-11" points="0 0 266 0 266 22 0 22"></polygon>
    </defs>
    <g id="Page-1" stroke="none" stroke-width="1" fill="none" fill-rule="evenodd">
        <g id="Study-Page" transform="translate(-149.000000, -1557.000000)">
            <g id="Stat" transform="translate(163.000000, 1567.000000)">
                <g id="Stat1">
                    <g id="Rectangle" fill-rule="nonzero">
                        <use fill="black" fill-opacity="1" filter="url(#filter-2)" xlink:href="#path-1"></use>
                        <use fill="#FFFFFF" xlink:href="#path-1"></use>
                    </g>
                    <g id="Group-45" transform="translate(0.000000, 28.000000)">
                        <g id="Group-2" transform="translate(17.000000, 3.000000)">
                            <mask id="mask-4" fill="white">
                                <use xlink:href="#path-3"></use>
                            </mask>
                            <g id="Clip-1"></g>
                            <text id="•" mask="url(#mask-4)" font-family="LucidaGrande, Lucida Grande" font-size="14" font-weight="normal" fill="#000000">
                                <tspan x="0.84985" y="11.5117188">•</tspan>
                            </text>
                        </g>
                        <g id="Group-4" transform="translate(24.000000, 3.000000)">
                            <mask id="mask-6" fill="white">
                                <use xlink:href="#path-5"></use>
                            </mask>
                            <g id="Clip-3"></g>
                            <text id="-" mask="url(#mask-6)" font-family="ArialMT, Arial" font-size="14" font-weight="normal"></text>
                        </g>
                        <g id="Group-6" transform="translate(35.000000, 3.000000)">
                            <mask id="mask-8" fill="white">
                                <use xlink:href="#path-7"></use>
                            </mask>
                            <g id="Clip-5"></g>
                            <text id="U.S.-runners-represent-an-affluent,-healthy-target" mask="url(#mask-8)" font-family="Raleway-MediumItalic, Raleway" font-size="14" font-style="italic" font-weight="500" fill="#000000" fill-opacity="0.7">
                                <tspan x="0.69995" y="10.5640564">U.S. runners represent an affluent, healthy target</tspan>
                            </text>
                        </g>
                        <g id="Group-8" transform="translate(349.000000, 3.000000)">
                            <mask id="mask-10" fill="white">
                                <use xlink:href="#path-9"></use>
                            </mask>
                            <g id="Clip-7"></g>
                            <text id="-" mask="url(#mask-10)" font-family="Raleway-Regular, Raleway" font-size="14" font-weight="normal"></text>
                        </g>
                        <text id="•" font-family="LucidaGrande, Lucida Grande" font-size="14" font-weight="normal" fill="#000000">
                            <tspan x="17.84985" y="39.5117188">•</tspan>
                        </text>
                        <text id="-" font-family="ArialMT, Arial" font-size="14" font-weight="normal"></text>
                        <text id="The-half-marathon-continues-to-be-the-most-popular-event-in-terms-" font-family="Raleway-MediumItalic, Raleway" font-size="14" font-style="italic" font-weight="500" fill="#000000" fill-opacity="0.7">
                            <tspan x="35.69995" y="38.5640564">The half marathon continues to be the most popular event in terms </tspan>
                        </text>
                        <text id="of-participation-and-favored-distance" font-family="Raleway-MediumItalic, Raleway" font-size="14" font-style="italic" font-weight="500" fill="#000000" fill-opacity="0.7">
                            <tspan x="35.69995" y="63.5640564">of participation and favored distance</tspan>
                        </text>
                        <text id="-" font-family="Raleway-Regular, Raleway" font-size="14" font-weight="normal"></text>
                        <text id="•" font-family="LucidaGrande, Lucida Grande" font-size="14" font-weight="normal" fill="#000000">
                            <tspan x="17.84985" y="89.5117188">•</tspan>
                        </text>
                        <text id="-" font-family="ArialMT, Arial" font-size="14" font-weight="normal"></text>
                        <text id="Runners-attend-events-as-both-fun-runners-and-competitors" font-family="Raleway-MediumItalic, Raleway" font-size="14" font-style="italic" font-weight="500" fill="#000000" fill-opacity="0.7">
                            <tspan x="35.69995" y="88.5640564">Runners attend events as both fun runners and competitors</tspan>
                        </text>
                        <text id="-" font-family="Raleway-Regular, Raleway" font-size="14" font-weight="normal"></text>
                        <text id="•" font-family="LucidaGrande, Lucida Grande" font-size="14" font-weight="normal" fill="#000000">
                            <tspan x="17.84985" y="115.511719">•</tspan>
                        </text>
                        <text id="-" font-family="ArialMT, Arial" font-size="14" font-weight="normal"></text>
                        <text id="Half-are-traditionalists-and-like-participating-in-the-same-events-every-" font-family="Raleway-MediumItalic, Raleway" font-size="14" font-style="italic" font-weight="500" fill="#000000" fill-opacity="0.7">
                            <tspan x="35.69995" y="114.564056">Half are traditionalists and like participating in the same events every </tspan>
                        </text>
                        <text id="year,-while-an-equal" font-family="Raleway-MediumItalic, Raleway" font-size="14" font-style="italic" font-weight="500" fill="#000000" fill-opacity="0.7">
                            <tspan x="35.69995" y="139.564056">year, while an equal</tspan>
                        </text>
                        <text id="-" font-family="Raleway-Regular, Raleway" font-size="14" font-weight="normal"></text>
                        <text id="number-are-always-looking-for-a-new-event-" font-family="Raleway-MediumItalic, Raleway" font-size="14" font-style="italic" font-weight="500" fill="#000000" fill-opacity="0.7">
                            <tspan x="168.5007" y="139.564056">number are always looking for a new event </tspan>
                        </text>
                        <text id="experience" font-family="Raleway-MediumItalic, Raleway" font-size="14" font-style="italic" font-weight="500" fill="#000000" fill-opacity="0.7">
                            <tspan x="35.69995" y="163.564056">experience</tspan>
                        </text>
                        <text id="-" font-family="Raleway-Regular, Raleway" font-size="14" font-weight="normal"></text>
                        <text id="-" font-family="ArialMT, Arial" font-size="14" font-weight="normal"></text>
                        <text id="-" font-family="Raleway-Regular, Raleway" font-size="14" font-weight="normal"></text>
                        <text id="•" font-family="LucidaGrande, Lucida Grande" font-size="14" font-weight="normal" fill="#000000">
                            <tspan x="615" y="14">•</tspan>
                        </text>
                        <text id="-" font-family="ArialMT, Arial" font-size="14" font-weight="normal"></text>
                        <text id="8-in-10-follow-something-running-related-on-social-media" font-family="Raleway-MediumItalic, Raleway" font-size="14" font-style="italic" font-weight="500" fill="#000000" fill-opacity="0.7">
                            <tspan x="633" y="13">8 in 10 follow something running related on social media</tspan>
                        </text>
                        <text id="-" font-family="Raleway-Regular, Raleway" font-size="14" font-weight="normal"></text>
                        <text id="•" font-family="LucidaGrande, Lucida Grande" font-size="14" font-weight="normal" fill="#000000">
                            <tspan x="615" y="39">•</tspan>
                        </text>
                        <text id="-" font-family="ArialMT, Arial" font-size="14" font-weight="normal"></text>
                        <text id="About-4-in-10-like-to-share-their-running-/-race-experience-via-social-" font-family="Raleway-MediumItalic, Raleway" font-size="14" font-style="italic" font-weight="500" fill="#000000" fill-opacity="0.7">
                            <tspan x="633" y="38">About 4 in 10 like to share their running / race experience via social </tspan>
                        </text>
                        <text id="media" font-family="Raleway-MediumItalic, Raleway" font-size="14" font-style="italic" font-weight="500" fill="#000000" fill-opacity="0.7">
                            <tspan x="633" y="63">media</tspan>
                        </text>
                        <text id="-" font-family="Raleway-Regular, Raleway" font-size="14" font-weight="normal"></text>
                        <text id="•" font-family="LucidaGrande, Lucida Grande" font-size="14" font-weight="normal" fill="#000000">
                            <tspan x="615" y="89">•</tspan>
                        </text>
                        <text id="-" font-family="ArialMT, Arial" font-size="14" font-weight="normal"></text>
                        <text id="Facebook-is-the-primary-social-media-channel" font-family="Raleway-MediumItalic, Raleway" font-size="14" font-style="italic" font-weight="500" fill="#000000" fill-opacity="0.7">
                            <tspan x="633" y="88">Facebook is the primary social media channel</tspan>
                        </text>
                        <text id="-" font-family="Raleway-Regular, Raleway" font-size="14" font-weight="normal"></text>
                        <text id="-" font-family="LucidaGrande, Lucida Grande" font-size="12" font-weight="normal"></text>
                    </g>
                </g>
                <g id="Group-13" transform="translate(1000.000000, 282.000000)" fill="#000000">
                    <g id="noun_dollar_840848">
                        <g id="Group">
                            <path d="M5.71706247,1.11451091 L5.71706247,2.80201091 C2.96707164,3.17125636 0.826850776,5.40734727 0.826850776,8.47814727 C0.826850776,10.3206109 1.64055783,11.6038636 2.71161953,12.3901364 C3.78268122,13.1764091 5.03652366,13.5858273 6.17552084,14.1287727 C7.42840793,14.7258818 8.61304926,15.1219636 9.38472124,15.6883909 C10.1563932,16.2549 10.6072742,16.8718909 10.6072742,18.2963455 C10.6072742,20.8774636 8.90365309,22.3872545 6.53210047,22.3872545 C4.60430047,22.3872545 3.08145148,20.9590364 2.38050753,19.5492273 C2.24963877,19.2823924 1.98678933,19.1063886 1.69151363,19.0878775 C1.39623792,19.0693663 1.11368838,19.2111784 0.950880836,19.4596024 C0.788073295,19.7080264 0.769903663,20.0250741 0.9032537,20.2906636 C1.7320666,21.9577091 3.44204029,23.6391545 5.71707064,23.9724818 L5.71707064,25.6599818 C5.71707064,26.1118636 6.0819789,26.4781636 6.53210047,26.4781636 C6.98222205,26.4781636 7.34713031,26.1118636 7.34713031,25.6599818 L7.34713031,23.9724818 C10.0971293,23.6032364 12.2373502,21.3671455 12.2373502,18.2963455 C12.2373502,16.4538818 11.4236431,15.1707273 10.3525814,14.3844545 C9.2815034,13.5981818 8.02766096,13.1886818 6.88867195,12.6458182 C5.63577668,12.0486273 4.45114352,11.6271 3.67947154,11.0605745 C2.90780773,10.4940655 2.45691862,9.90260182 2.45691862,8.47814727 C2.45691862,5.89702909 4.16053969,4.38723818 6.53210047,4.38723818 C8.45992497,4.38723818 9.98273314,5.78992909 10.6836934,7.19973818 C10.8144084,7.46683986 11.0773262,7.64310855 11.3727663,7.66171531 C11.6682065,7.68032207 11.9509372,7.5384182 12.1137666,7.28980388 C12.2765959,7.04118957 12.2945947,6.72392758 12.1609391,6.45830182 C11.3311137,4.78921091 9.62641479,3.12822 7.34713031,2.80201091 L7.34713031,1.11451091 C7.34713031,0.662629091 6.98222205,0.296329091 6.53210047,0.296329091 C6.08197074,0.296329091 5.71706247,0.662629091 5.71706247,1.11451091 Z" id="Path"></path>
                        </g>
                    </g>
                    <text id="Cost" font-family="Raleway-Regular, Raleway" font-size="14" font-weight="normal" letter-spacing="0.0014">
                        <tspan x="20" y="23">Cost</tspan>
                    </text>
                </g>
                <g id="Group-7" transform="translate(230.000000, 279.000000)" fill="#000000">
                    <g id="noun_date_1076224">
                        <g id="Group">
                            <path d="M20.3411765,2.625 L19.3088235,2.625 L19.3088235,0.8625 C19.3088235,0.45 18.9647059,0.1125 18.5441176,0.1125 C18.1235294,0.1125 17.7794118,0.45 17.7794118,0.8625 L17.7794118,2.625 L8.22058824,2.625 L8.22058824,0.8625 C8.22058824,0.45 7.87647059,0.1125 7.45588235,0.1125 C7.03529412,0.1125 6.69117647,0.45 6.69117647,0.8625 L6.69117647,2.625 L5.65882353,2.625 C2.71470588,2.625 0.305882353,4.9875 0.305882353,7.875 L0.305882353,21.6375 C0.305882353,24.525 2.71470588,26.8875 5.65882353,26.8875 L20.3794118,26.8875 C23.3235294,26.8875 25.7323529,24.525 25.7323529,21.6375 L25.7323529,7.875 C25.6941176,4.9875 23.3235294,2.625 20.3411765,2.625 Z M20.3411765,25.3875 L5.65882353,25.3875 C3.55588235,25.3875 1.83529412,23.7 1.83529412,21.6375 L1.83529412,11.25 L24.2029412,11.25 L24.2029412,21.6375 C24.1647059,23.7 22.4441176,25.3875 20.3411765,25.3875 Z M24.1647059,9.75 L1.83529412,9.75 L1.83529412,7.875 C1.83529412,5.8125 3.55588235,4.125 5.65882353,4.125 L6.69117647,4.125 L6.69117647,5.8875 C6.69117647,6.3 7.03529412,6.6375 7.45588235,6.6375 C7.87647059,6.6375 8.22058824,6.3 8.22058824,5.8875 L8.22058824,4.125 L17.7794118,4.125 L17.7794118,5.8875 C17.7794118,6.3 18.1235294,6.6375 18.5441176,6.6375 C18.9647059,6.6375 19.3088235,6.3 19.3088235,5.8875 L19.3088235,4.125 L20.3411765,4.125 C22.4441176,4.125 24.1647059,5.8125 24.1647059,7.875 L24.1647059,9.75 Z" id="Shape" fill-rule="nonzero"></path>
                            <path d="M19.4617647,19.5 L6.53823529,19.5 C6.11764706,19.5 5.77352941,19.8375 5.77352941,20.25 C5.77352941,20.6625 6.11764706,21 6.53823529,21 L19.4235294,21 C19.8441176,21 20.1882353,20.6625 20.1882353,20.25 C20.1882353,19.8375 19.8823529,19.5 19.4617647,19.5 Z" id="Path"></path>
                            <path d="M8.71764706,16.7625 L17.3205882,16.7625 C17.7411765,16.7625 18.0852941,16.425 18.0852941,16.0125 C18.0852941,15.6 17.7411765,15.2625 17.3205882,15.2625 L8.71764706,15.2625 C8.29705882,15.2625 7.95294118,15.6 7.95294118,16.0125 C7.95294118,16.425 8.29705882,16.7625 8.71764706,16.7625 Z" id="Path"></path>
                        </g>
                    </g>
                    <text id="Date" font-family="Raleway-Regular, Raleway" font-size="14" font-weight="normal" letter-spacing="0.0024">
                        <tspan x="35" y="26">D</tspan>
                        <tspan x="45.0124" y="26" letter-spacing="-0.0024">ate</tspan>
                        <tspan x="65.3052" y="26"> </tspan>
                    </text>
                </g>
                <g id="Group-9" transform="translate(353.000000, 280.000000)" fill="#000000">
                    <text id="Convenient-location" font-family="Raleway-Regular, Raleway" font-size="14" font-weight="normal" letter-spacing="0.0014">
                        <tspan x="34" y="25">Convenient location</tspan>
                    </text>
                    <g id="noun_Location_1364778" transform="translate(0.000000, 0.000000)" fill-rule="nonzero">
                        <path d="M5.99489863,19.5451646 C2.29728123,20.2100369 0,21.3545017 0,23.0020284 C0,25.455603 5.5914977,27 12.6,27 C19.6085023,27 25.2,25.455603 25.2,23.0020284 C25.2,21.3574404 22.9115917,20.2146164 19.226091,19.5489473 C18.8438635,19.47991 18.4787458,19.7377514 18.4105777,20.1248522 C18.3424095,20.511953 18.5970048,20.881726 18.9792323,20.9507633 C21.9728611,21.4914676 23.7939914,22.4009344 23.7939914,23.0020284 C23.7939914,23.4260761 22.7503479,24.107597 20.8274736,24.6387036 C18.6757067,25.2330314 15.7393959,25.5760649 12.6,25.5760649 C9.46060403,25.5760649 6.52429329,25.2330314 4.3725263,24.6387036 C2.44965209,24.107597 1.40600858,23.4260761 1.40600858,23.0020284 C1.40600858,22.3990888 3.23590636,21.4874662 6.24068768,20.9471734 C6.62296766,20.8784353 6.87784507,20.5088617 6.80997228,20.1217076 C6.74209955,19.7345536 6.37717861,19.4764265 5.99489863,19.5451646 Z M12.672103,0 C7.86056136,0 3.94763948,3.96281136 3.94763948,8.83569978 C3.94763948,14.9603124 11.8229219,23.0066897 12.1573596,23.3468641 C12.2998592,23.4897079 12.4859811,23.5618661 12.672103,23.5618661 C12.8582249,23.5618661 13.0443468,23.4897079 13.1868463,23.3468641 C13.5212841,23.0066897 21.3965665,14.9603124 21.3965665,8.83569978 C21.3965665,3.96281136 17.4836446,0 12.672103,0 Z M12.672103,21.760856 C10.9359347,19.8788519 5.40171676,13.5142028 5.40171676,8.83569978 C5.40171676,4.77569574 8.66321201,1.47261663 12.672103,1.47261663 C16.680994,1.47261663 19.9424892,4.77569574 19.9424892,8.83569978 C19.9424892,13.509785 14.4082712,19.8788519 12.672103,21.760856 Z M12.672103,4.41784992 C10.2670592,4.41784992 8.30987126,6.39999186 8.30987126,8.83569978 C8.30987126,11.2714077 10.2670592,13.2535497 12.672103,13.2535497 C15.0771468,13.2535497 17.0343347,11.2714077 17.0343347,8.83569978 C17.0343347,6.39999186 15.0771468,4.41784992 12.672103,4.41784992 Z M12.672103,11.780933 C11.0682558,11.780933 9.76394847,10.459996 9.76394847,8.83569978 C9.76394847,7.21140366 11.0682558,5.89046652 12.672103,5.89046652 C14.2759502,5.89046652 15.5802575,7.21140366 15.5802575,8.83569978 C15.5802575,10.459996 14.2759502,11.780933 12.672103,11.780933 Z" id="Shape"></path>
                    </g>
                </g>
                <g id="Group-10" transform="translate(569.000000, 282.000000)" fill="#000000">
                    <text id="Have-time-to-train" font-family="Raleway-Regular, Raleway" font-size="14" font-weight="normal" letter-spacing="0.0014">
                        <tspan x="31" y="23"> Have time to train</tspan>
                    </text>
                    <g id="noun_Time_1989059">
                        <g id="Group">
                            <path d="M13.5,0.03 C9.90592105,0.03 6.525,1.428 3.97894737,3.972 C1.43289474,6.516 0.0296052632,9.9 0.0296052632,13.5 C0.0296052632,17.1 1.43289474,20.484 3.97894737,23.028 C6.525,25.572 9.9,26.97 13.5,26.97 C17.1,26.97 20.475,25.572 23.0210526,23.028 C25.5671053,20.484 26.9703947,17.1 26.9703947,13.5 C26.9703947,9.9 25.5671053,6.516 23.0210526,3.972 C20.475,1.428 17.0940789,0.03 13.5,0.03 Z M13.5,25.17 C7.05197368,25.17 1.80592105,19.932 1.80592105,13.5 C1.80592105,7.068 7.05197368,1.83 13.5,1.83 C19.9480263,1.83 25.1940789,7.068 25.1940789,13.5 C25.1940789,19.932 19.9480263,25.17 13.5,25.17 Z" id="Shape" fill-rule="nonzero"></path>
                            <path d="M19.3085526,17.4 L14.2697368,13.47 L14.2697368,5.706 C14.2697368,5.208 13.8730263,4.806 13.3815789,4.806 C12.8901316,4.806 12.4934211,5.208 12.4934211,5.706 L12.4934211,13.914 C12.4934211,14.196 12.6118421,14.46 12.8309211,14.628 L18.225,18.828 C18.3848684,18.954 18.5743421,19.014 18.7638158,19.014 C19.0302632,19.014 19.2967105,18.894 19.4743421,18.66 C19.7703947,18.27 19.6993421,17.706 19.3085526,17.4 Z" id="Path"></path>
                        </g>
                    </g>
                </g>
                <g id="Group-12" transform="translate(772.000000, 279.000000)" fill="#000000">
                    <text id="Being-healthy-/-inju" font-family="Raleway-Regular, Raleway" font-size="14" font-weight="normal" letter-spacing="0.0014">
                        <tspan x="34" y="26">Being healthy / injury</tspan>
                    </text>
                    <g id="noun_Foot-Injury_69830">
                        <path d="M3.502125,27 C2.15775,27 1.056375,26.85375 0.4455,26.30025 C0.153,26.033625 0,25.687125 0,25.300125 C0,23.653125 1.711125,22.68 4.714875,22.613625 C5.81625,20.5875 7.8525,17.650125 10.0035,15.50925 C7.842375,11.36925 5.6115,7.075125 3.4155,1.814625 C3.30075,1.540125 3.439125,1.22625 3.72825,1.117125 C4.014,1.00575 4.343625,1.14075 4.456125,1.416375 C6.697125,6.777 8.97975,11.145375 11.18475,15.368625 C11.296125,15.575625 11.253375,15.82875 11.079,15.989625 C8.805375,18.1665 6.622875,21.35025 5.55975,23.3865 C5.46525,23.5665 5.2695,23.6835 5.059125,23.6835 C3.15675,23.6835 1.121625,24.107625 1.121625,25.299 C1.121625,25.392375 1.1475,25.45425 1.218375,25.515 C1.7865,26.0325 3.952125,25.927875 5.113125,25.869375 C5.421375,25.8525 5.704875,25.8435 5.94,25.837875 C7.5285,24.841125 9.813375,24.082875 12.024,23.34825 C14.491125,22.525875 17.04375,21.677625 18.158625,20.611125 C19.98,18.87075 17.103375,14.9805 15.908625,13.83525 C14.7375,12.71475 11.835,2.680875 11.2635,0.678375 C11.1825,0.390375 11.358,0.0945 11.660625,0.018 C11.964375,-0.05625 12.270375,0.109125 12.349125,0.397125 C13.98825,6.1515 16.068375,12.46725 16.704,13.075875 C17.857125,14.17725 21.619125,18.82125 18.954,21.371625 C17.661375,22.613625 15.09975,23.463 12.393,24.364125 C10.184625,25.102125 7.89975,25.860375 6.427125,26.81775 C6.33375,26.879625 6.2235,26.911125 6.111,26.911125 C5.86125,26.911125 5.535,26.928 5.16825,26.944875 C4.588875,26.97975 4.0275,27 3.502125,27 Z" id="Path"></path>
                        <path d="M19.594125,26.915625 C19.353375,26.915625 19.130625,26.766 19.05525,26.53425 L18.02475,23.304375 C17.93475,23.0175 18.100125,22.71825 18.39825,22.631625 C18.700875,22.54275 19.009125,22.703625 19.101375,22.98825 L20.131875,26.218125 C20.221875,26.503875 20.05875,26.803125 19.758375,26.890875 C19.7055,26.908875 19.648125,26.915625 19.594125,26.915625 Z" id="Path"></path>
                        <path d="M24.1875,23.686875 C24.0795,23.686875 23.972625,23.65875 23.875875,23.59575 L20.500875,21.443625 C20.24325,21.27825 20.1735,20.944125 20.3445,20.69775 C20.5155,20.45025 20.867625,20.385 21.124125,20.547 L24.499125,22.70025 C24.75675,22.8645 24.8265,23.19975 24.6555,23.446125 C24.54525,23.601375 24.368625,23.686875 24.1875,23.686875 Z" id="Path"></path>
                        <path d="M20.8125,18.30375 C20.577375,18.30375 20.358,18.160875 20.278125,17.935875 C20.179125,17.6535 20.34,17.34975 20.63025,17.254125 L24.00525,16.1775 C24.303375,16.08525 24.620625,16.23825 24.72075,16.516125 C24.8175,16.7985 24.6555,17.10225 24.36525,17.19675 L20.99025,18.273375 C20.930625,18.29475 20.872125,18.30375 20.8125,18.30375 Z" id="Path"></path>
                        <path d="M19.6875,15.07275 C19.5795,15.07275 19.472625,15.04575 19.375875,14.98275 C19.11825,14.8185 19.0485,14.484375 19.2195,14.238 L21.4695,11.007 C21.64275,10.760625 21.99375,10.69425 22.249125,10.857375 C22.50675,11.02275 22.5765,11.356875 22.4055,11.604375 L20.1555,14.83425 C20.04525,14.9895 19.868625,15.07275 19.6875,15.07275 Z" id="Path"></path>
                    </g>
                </g>
                <g id="Group-2" transform="translate(19.000000, 230.000000)">
                    <mask id="mask-12" fill="white">
                        <use xlink:href="#path-11"></use>
                    </mask>
                    <g id="Clip-1"></g>
                    <text id="Main-factors-impacti" mask="url(#mask-12)" font-family="Raleway-SemiBold, Raleway" font-size="14" font-weight="500" letter-spacing="-0.0028" fill="#000000">
                        <tspan x="0" y="11">Main factors impacting participation are: </tspan>
                    </text>
                </g>
                <g id="Group-3" transform="translate(21.000000, 275.000000)" fill="#000000">
                    <g id="noun_distance_1713277" fill-rule="nonzero">
                        <g id="Group">
                            <path d="M23.2247489,0.107581188 C25.8314298,0.107581188 28,2.1486505 28,4.86005644 C28,5.52207624 27.8518085,6.38162079 27.6276596,6.9856604 C26.3496383,9.72489802 25.0589277,12.4696901 23.7739362,15.2096733 C23.6786766,15.413198 23.4592936,15.5531287 23.2340426,15.5531287 L16.6808809,15.5531287 C15.185383,15.5531287 14.0000298,16.7351287 14.0000298,18.226396 C14.0000298,19.7176634 15.185383,20.8996634 16.6808809,20.8996634 L19.3617021,20.8996634 C21.8267447,20.8996634 23.8297872,22.8970693 23.8297872,25.3551089 C23.8297872,27.8131782 21.8267447,29.8105545 19.3617021,29.8105545 L5.36170213,29.8105545 C5.13645106,29.8105545 4.91706809,29.6706238 4.82180851,29.4671287 C3.37164681,26.3817921 1.85625106,23.318495 0.418868085,20.2313465 C0.174165957,19.5820396 0,18.6621386 0,17.9293663 C0,14.9125842 2.42870213,12.5828287 5.37099574,12.5828287 C8.31334894,12.5828287 10.7234043,14.9143366 10.7234043,17.9293663 C10.7234043,18.6626436 10.5473617,19.5836139 10.3045362,20.2313465 C8.97733617,23.0269901 7.63673191,25.8256634 6.30184681,28.6224356 L19.3617021,28.6224356 C21.1872723,28.6224356 22.6382979,27.1755149 22.6382979,25.3551089 C22.6382979,23.5347327 21.1872723,22.0877822 19.3617021,22.0877822 L16.6808809,22.0877822 C14.5459106,22.0877822 12.8085404,20.3553267 12.8085404,18.226396 C12.8085404,16.0974653 14.5459106,14.3650099 16.6808809,14.3650099 L22.2938979,14.3650099 C21.1459277,11.9037 19.9684681,9.45106634 18.8404255,6.9856604 C18.6181234,6.38328416 18.4680851,5.52258119 18.4680851,4.86005644 C18.4680851,2.15034356 20.6179787,0.107581188 23.2247489,0.107581188 Z M23.2247489,1.2957 C21.2247745,1.2957 19.6595745,2.76204653 19.6595745,4.86005644 C19.6595745,5.29933366 19.8218851,6.1956505 19.9574468,6.56797723 C21.0428043,8.8957099 22.1408213,11.2223733 23.2340426,13.5481723 C24.3013787,11.2107594 25.4064255,8.95054158 26.5106383,6.56797723 C26.6464681,6.19695743 26.8085106,5.30031386 26.8085106,4.86005644 C26.8085106,2.7637396 25.2246043,1.2957 23.2247489,1.2957 Z M23.233983,2.78084851 C24.3784681,2.78084851 25.3190894,3.71877921 25.3190894,4.86005644 C25.3190894,6.00133366 24.3784681,6.93926436 23.233983,6.93926436 C22.0894681,6.93926436 21.1488766,6.00133366 21.1488766,4.86005644 C21.1488766,3.71877921 22.0894681,2.78084851 23.233983,2.78084851 Z M23.233983,3.96896733 C22.7334085,3.96896733 22.340366,4.36089802 22.340366,4.86005644 C22.340366,5.35921485 22.7334085,5.75114554 23.233983,5.75114554 C23.7345277,5.75114554 24.1276,5.35918515 24.1276,4.86005644 C24.1276,4.36089802 23.7345277,3.96896733 23.233983,3.96896733 Z M5.37093617,13.7709446 C3.04842553,13.7709446 1.19142979,15.5374752 1.19142979,17.9293663 C1.19142979,18.4368119 1.36946809,19.3584653 1.53582979,19.8043663 C2.80425957,22.4786733 4.08534894,25.1518515 5.36164255,27.8241683 C6.61166383,25.1398218 7.94815745,22.4335842 9.18745532,19.8043663 C9.35348936,19.3572475 9.53191489,18.4357723 9.53191489,17.9293663 C9.53191489,15.5357228 7.69356596,13.7709446 5.37099574,13.7709446 L5.37093617,13.7709446 Z M5.36170213,15.256099 C6.83521702,15.256099 8.04255319,16.4599901 8.04255319,17.9293663 C8.04255319,19.3987129 6.83521702,20.6026337 5.36170213,20.6026337 C3.88815745,20.6026337 2.68085106,19.3987129 2.68085106,17.9293663 C2.68085106,16.4599901 3.88815745,15.256099 5.36170213,15.256099 Z M5.36170213,16.4442178 C4.53209787,16.4442178 3.87234043,17.1021089 3.87234043,17.9293663 C3.87234043,18.7565941 4.53209787,19.4145149 5.36170213,19.4145149 C6.1912766,19.4145149 6.85106383,18.7565941 6.85106383,17.9293663 C6.85106383,17.1021089 6.1912766,16.4442178 5.36170213,16.4442178 Z" id="Shape"></path>
                        </g>
                    </g>
                    <text id="Preferred-distance" font-family="Raleway-Regular, Raleway" font-size="14" font-weight="normal" letter-spacing="0.0028">
                        <tspan x="33" y="30">Preferred distance </tspan>
                    </text>
                </g>
            </g>
        </g>
    </g>
</svg>