<?xml version="1.0" encoding="UTF-8"?>
<svg width="1087px" height="592px" viewBox="0 0 1087 592" version="1.1" xmlns="http://www.w3.org/2000/svg" xmlns:xlink="http://www.w3.org/1999/xlink">
    <!-- Generator: sketchtool 52.4 (67378) - http://www.bohemiancoding.com/sketch -->
    <title>2535BF43-1745-43F1-99CE-A77F8729A7D7@1x</title>
    <desc>Created with sketchtool.</desc>
    <g id="Page-1" stroke="none" stroke-width="1" fill="none" fill-rule="evenodd">
        <g id="Study-Page" transform="translate(-161.000000, -2885.000000)">
            <g id="Reviews" transform="translate(161.000000, 2885.000000)">
                <g id="Group-11" transform="translate(533.000000, 147.000000)">
                    <g id="Review">
                        <rect id="Background" x="0" y="0" width="446" height="133"></rect>
                        <g id="Group">
                            <rect id="Rectangle" fill="#EEF0F5" fill-rule="nonzero" x="0" y="0" width="446" height="133" rx="10"></rect>
                            <text id="I-like-the-workouts" font-family="Raleway-Regular, Raleway" font-size="16" font-weight="normal" letter-spacing="0.4" fill="#333333">
                                <tspan x="32" y="65.4482759">I am very pleased with not only the ability to see </tspan>
                                <tspan x="32" y="84.4482759">past stats and list upcoming events but also keep </tspan>
                                <tspan x="32" y="103.448276">track of my companions and competition.</tspan>
                            </text>
                        </g>
                    </g>
                    <g id="stars" transform="translate(32.000000, 22.000000)" fill="#FF7A0D">
                        <polygon id="Star" points="8.18181818 11.4545455 3.37266612 14.8010481 5.06926954 9.19314654 0.400446685 5.65349732 6.25815733 5.53412616 8.18181818 0 10.105479 5.53412616 15.9631897 5.65349732 11.2943668 9.19314654 12.9909702 14.8010481"></polygon>
                        <polygon id="Star" points="27.2727273 11.4545455 22.4635752 14.8010481 24.1601786 9.19314654 19.4913558 5.65349732 25.3490664 5.53412616 27.2727273 0 29.1963881 5.53412616 35.0540988 5.65349732 30.3852759 9.19314654 32.0818793 14.8010481"></polygon>
                        <polygon id="Star" points="46.3636364 11.4545455 41.5544843 14.8010481 43.2510877 9.19314654 38.5822649 5.65349732 44.4399755 5.53412616 46.3636364 0 48.2872972 5.53412616 54.1450079 5.65349732 49.476185 9.19314654 51.1727884 14.8010481"></polygon>
                        <polygon id="Star" points="65.4545455 11.4545455 60.6453934 14.8010481 62.3419968 9.19314654 57.673174 5.65349732 63.5308846 5.53412616 65.4545455 0 67.3782063 5.53412616 73.235917 5.65349732 68.5670941 9.19314654 70.2636975 14.8010481"></polygon>
                        <polygon id="Star" points="84.5454545 11.4545455 79.7363025 14.8010481 81.4329059 9.19314654 76.764083 5.65349732 82.6217937 5.53412616 84.5454545 0 86.4691154 5.53412616 92.326826 5.65349732 87.6580032 9.19314654 89.3546066 14.8010481"></polygon>
                    </g>
                </g>
                <g id="Group-11" transform="translate(0.000000, 144.000000)">
                    <g id="Review">
                        <rect id="Background" x="0" y="0" width="446" height="148"></rect>
                        <g id="Group">
                            <rect id="Rectangle" fill="#EEF0F5" fill-rule="nonzero" x="0" y="0" width="446" height="148" rx="10"></rect>
                            <text id="I-like-the-workouts" font-family="Raleway-Regular, Raleway" font-size="16" font-weight="normal" letter-spacing="0.4" fill="#333333">
                                <tspan x="32" y="71.137931">It does not have all the races I have run, and </tspan>
                                <tspan x="32" y="90.137931">there is no way to manually add the race </tspan>
                                <tspan x="32" y="109.137931">information. Doesn't work for what I would want it </tspan>
                                <tspan x="32" y="128.137931">for.</tspan>
                            </text>
                        </g>
                    </g>
                    <g id="stars" transform="translate(33.000000, 25.000000)">
                        <polygon id="Star" fill="#FF7A0D" points="8.18181818 11.4545455 3.37266612 14.8010481 5.06926954 9.19314654 0.400446685 5.65349732 6.25815733 5.53412616 8.18181818 0 10.105479 5.53412616 15.9631897 5.65349732 11.2943668 9.19314654 12.9909702 14.8010481"></polygon>
                        <polygon id="Star" stroke="#FF7A0D" points="27.2727273 11.4545455 22.4635752 14.8010481 24.1601786 9.19314654 19.4913558 5.65349732 25.3490664 5.53412616 27.2727273 0 29.1963881 5.53412616 35.0540988 5.65349732 30.3852759 9.19314654 32.0818793 14.8010481"></polygon>
                        <polygon id="Star" stroke="#FF7A0D" points="46.3636364 11.4545455 41.5544843 14.8010481 43.2510877 9.19314654 38.5822649 5.65349732 44.4399755 5.53412616 46.3636364 0 48.2872972 5.53412616 54.1450079 5.65349732 49.476185 9.19314654 51.1727884 14.8010481"></polygon>
                        <polygon id="Star" stroke="#FF7A0D" points="65.4545455 11.4545455 60.6453934 14.8010481 62.3419968 9.19314654 57.673174 5.65349732 63.5308846 5.53412616 65.4545455 0 67.3782063 5.53412616 73.235917 5.65349732 68.5670941 9.19314654 70.2636975 14.8010481"></polygon>
                        <polygon id="Star" stroke="#FF7A0D" points="84.5454545 11.4545455 79.7363025 14.8010481 81.4329059 9.19314654 76.764083 5.65349732 82.6217937 5.53412616 84.5454545 0 86.4691154 5.53412616 92.326826 5.65349732 87.6580032 9.19314654 89.3546066 14.8010481"></polygon>
                    </g>
                </g>
                <g id="Group-11" transform="translate(74.000000, 0.000000)">
                    <g id="Review">
                        <rect id="Background" x="0" y="0" width="446" height="129"></rect>
                        <g id="Group">
                            <rect id="Rectangle" fill="#EEF0F5" fill-rule="nonzero" x="0" y="0" width="446" height="129" rx="10"></rect>
                            <text id="I-like-the-workouts" font-family="Raleway-Regular, Raleway" font-size="16" font-weight="normal" letter-spacing="0.4" fill="#333333">
                                <tspan x="32" y="63.9310345">The search for results isn’t nearly as flexible as </tspan>
                                <tspan x="32" y="82.9310345">via the site. Overall concept is great, but the user </tspan>
                                <tspan x="32" y="101.931034">interface and functionality is really lacking.</tspan>
                            </text>
                        </g>
                    </g>
                    <g id="stars" transform="translate(32.000000, 21.000000)">
                        <polygon id="Star" fill="#FF7A0D" points="8.18181818 11.4545455 3.37266612 14.8010481 5.06926954 9.19314654 0.400446685 5.65349732 6.25815733 5.53412616 8.18181818 0 10.105479 5.53412616 15.9631897 5.65349732 11.2943668 9.19314654 12.9909702 14.8010481"></polygon>
                        <polygon id="Star" fill="#FF7A0D" points="27.2727273 11.4545455 22.4635752 14.8010481 24.1601786 9.19314654 19.4913558 5.65349732 25.3490664 5.53412616 27.2727273 0 29.1963881 5.53412616 35.0540988 5.65349732 30.3852759 9.19314654 32.0818793 14.8010481"></polygon>
                        <polygon id="Star" stroke="#FF7A0D" points="46.3636364 11.4545455 41.5544843 14.8010481 43.2510877 9.19314654 38.5822649 5.65349732 44.4399755 5.53412616 46.3636364 0 48.2872972 5.53412616 54.1450079 5.65349732 49.476185 9.19314654 51.1727884 14.8010481"></polygon>
                        <polygon id="Star" stroke="#FF7A0D" points="65.4545455 11.4545455 60.6453934 14.8010481 62.3419968 9.19314654 57.673174 5.65349732 63.5308846 5.53412616 65.4545455 0 67.3782063 5.53412616 73.235917 5.65349732 68.5670941 9.19314654 70.2636975 14.8010481"></polygon>
                        <polygon id="Star" stroke="#FF7A0D" points="84.5454545 11.4545455 79.7363025 14.8010481 81.4329059 9.19314654 76.764083 5.65349732 82.6217937 5.53412616 84.5454545 0 86.4691154 5.53412616 92.326826 5.65349732 87.6580032 9.19314654 89.3546066 14.8010481"></polygon>
                    </g>
                </g>
                <g id="Group-11" transform="translate(158.000000, 303.000000)">
                    <g id="Review">
                        <rect id="Background" x="0" y="0" width="446" height="137"></rect>
                        <g id="Group">
                            <rect id="Rectangle" fill="#EEF0F5" fill-rule="nonzero" x="0" y="0" width="446" height="137" rx="10"></rect>
                            <text id="I-like-the-workouts" font-family="Raleway-Regular, Raleway" font-size="16" font-weight="normal" letter-spacing="0.4" fill="#333333">
                                <tspan x="32" y="66.9655172">App keeps crashing. I have deleted and re-</tspan>
                                <tspan x="32" y="85.9655172">installed more than a couple of times but still </tspan>
                                <tspan x="32" y="104.965517">unable to log-in with my password. It keeps </tspan>
                                <tspan x="32" y="123.965517">stating incorrect email address or password.</tspan>
                            </text>
                        </g>
                    </g>
                    <g id="stars" transform="translate(32.000000, 22.000000)">
                        <polygon id="Star" fill="#FF7A0D" points="8.18181818 11.4545455 3.37266612 14.8010481 5.06926954 9.19314654 0.400446685 5.65349732 6.25815733 5.53412616 8.18181818 0 10.105479 5.53412616 15.9631897 5.65349732 11.2943668 9.19314654 12.9909702 14.8010481"></polygon>
                        <polygon id="Star" stroke="#FF7A0D" points="27.2727273 11.4545455 22.4635752 14.8010481 24.1601786 9.19314654 19.4913558 5.65349732 25.3490664 5.53412616 27.2727273 0 29.1963881 5.53412616 35.0540988 5.65349732 30.3852759 9.19314654 32.0818793 14.8010481"></polygon>
                        <polygon id="Star" stroke="#FF7A0D" points="46.3636364 11.4545455 41.5544843 14.8010481 43.2510877 9.19314654 38.5822649 5.65349732 44.4399755 5.53412616 46.3636364 0 48.2872972 5.53412616 54.1450079 5.65349732 49.476185 9.19314654 51.1727884 14.8010481"></polygon>
                        <polygon id="Star" stroke="#FF7A0D" points="65.4545455 11.4545455 60.6453934 14.8010481 62.3419968 9.19314654 57.673174 5.65349732 63.5308846 5.53412616 65.4545455 0 67.3782063 5.53412616 73.235917 5.65349732 68.5670941 9.19314654 70.2636975 14.8010481"></polygon>
                        <polygon id="Star" stroke="#FF7A0D" points="84.5454545 11.4545455 79.7363025 14.8010481 81.4329059 9.19314654 76.764083 5.65349732 82.6217937 5.53412616 84.5454545 0 86.4691154 5.53412616 92.326826 5.65349732 87.6580032 9.19314654 89.3546066 14.8010481"></polygon>
                    </g>
                </g>
                <g id="Group-11" transform="translate(641.000000, 2.000000)">
                    <g id="Review">
                        <rect id="Background" x="0" y="0" width="446" height="107"></rect>
                        <g id="Group">
                            <rect id="Rectangle" fill="#EEF0F5" fill-rule="nonzero" x="0" y="0" width="446" height="107" rx="10"></rect>
                            <text id="I-like-the-workouts" font-family="Raleway-Regular, Raleway" font-size="16" font-weight="normal" letter-spacing="0.4" fill="#333333">
                                <tspan x="32" y="55.5862069">The interface is not intuitive and way too </tspan>
                                <tspan x="32" y="74.5862069">complicated.</tspan>
                            </text>
                        </g>
                    </g>
                    <g id="stars" transform="translate(32.000000, 17.000000)">
                        <polygon id="Star" fill="#FF7A0D" points="8.18181818 11.4545455 3.37266612 14.8010481 5.06926954 9.19314654 0.400446685 5.65349732 6.25815733 5.53412616 8.18181818 0 10.105479 5.53412616 15.9631897 5.65349732 11.2943668 9.19314654 12.9909702 14.8010481"></polygon>
                        <polygon id="Star" fill="#FF7A0D" points="27.2727273 11.4545455 22.4635752 14.8010481 24.1601786 9.19314654 19.4913558 5.65349732 25.3490664 5.53412616 27.2727273 0 29.1963881 5.53412616 35.0540988 5.65349732 30.3852759 9.19314654 32.0818793 14.8010481"></polygon>
                        <polygon id="Star" fill="#FF7A0D" points="46.3636364 11.4545455 41.5544843 14.8010481 43.2510877 9.19314654 38.5822649 5.65349732 44.4399755 5.53412616 46.3636364 0 48.2872972 5.53412616 54.1450079 5.65349732 49.476185 9.19314654 51.1727884 14.8010481"></polygon>
                        <polygon id="Star" stroke="#FF7A0D" points="65.4545455 11.4545455 60.6453934 14.8010481 62.3419968 9.19314654 57.673174 5.65349732 63.5308846 5.53412616 65.4545455 0 67.3782063 5.53412616 73.235917 5.65349732 68.5670941 9.19314654 70.2636975 14.8010481"></polygon>
                        <polygon id="Star" stroke="#FF7A0D" points="84.5454545 11.4545455 79.7363025 14.8010481 81.4329059 9.19314654 76.764083 5.65349732 82.6217937 5.53412616 84.5454545 0 86.4691154 5.53412616 92.326826 5.65349732 87.6580032 9.19314654 89.3546066 14.8010481"></polygon>
                    </g>
                </g>
                <g id="Group-11" transform="translate(0.000000, 451.000000)">
                    <g id="Review">
                        <rect id="Background" x="0" y="0" width="446" height="132"></rect>
                        <g id="Group">
                            <rect id="Rectangle" fill="#EEF0F5" fill-rule="nonzero" x="0" y="0" width="446" height="132" rx="10"></rect>
                            <text id="I-like-the-workouts" font-family="Raleway-Regular, Raleway" font-size="16" font-weight="normal" letter-spacing="0.4" fill="#333333">
                                <tspan x="32" y="65.0689655">I like that I can keep all races in one spot. I need </tspan>
                                <tspan x="32" y="84.0689655">the option to filter my results by the distance I </tspan>
                                <tspan x="32" y="103.068966">ran, see total of races ran in each distance and I </tspan>
                                <tspan x="32" y="122.068966">can’t do that.</tspan>
                            </text>
                        </g>
                    </g>
                    <g id="stars" transform="translate(31.000000, 20.000000)">
                        <polygon id="Star" fill="#FF7A0D" points="8.18181818 11.4545455 3.37266612 14.8010481 5.06926954 9.19314654 0.400446685 5.65349732 6.25815733 5.53412616 8.18181818 0 10.105479 5.53412616 15.9631897 5.65349732 11.2943668 9.19314654 12.9909702 14.8010481"></polygon>
                        <polygon id="Star" fill="#FF7A0D" points="27.2727273 11.4545455 22.4635752 14.8010481 24.1601786 9.19314654 19.4913558 5.65349732 25.3490664 5.53412616 27.2727273 0 29.1963881 5.53412616 35.0540988 5.65349732 30.3852759 9.19314654 32.0818793 14.8010481"></polygon>
                        <polygon id="Star" fill="#FF7A0D" points="46.3636364 11.4545455 41.5544843 14.8010481 43.2510877 9.19314654 38.5822649 5.65349732 44.4399755 5.53412616 46.3636364 0 48.2872972 5.53412616 54.1450079 5.65349732 49.476185 9.19314654 51.1727884 14.8010481"></polygon>
                        <polygon id="Star" stroke="#FF7A0D" points="65.4545455 11.4545455 60.6453934 14.8010481 62.3419968 9.19314654 57.673174 5.65349732 63.5308846 5.53412616 65.4545455 0 67.3782063 5.53412616 73.235917 5.65349732 68.5670941 9.19314654 70.2636975 14.8010481"></polygon>
                        <polygon id="Star" stroke="#FF7A0D" points="84.5454545 11.4545455 79.7363025 14.8010481 81.4329059 9.19314654 76.764083 5.65349732 82.6217937 5.53412616 84.5454545 0 86.4691154 5.53412616 92.326826 5.65349732 87.6580032 9.19314654 89.3546066 14.8010481"></polygon>
                    </g>
                </g>
                <g id="Group-5" transform="translate(641.000000, 342.000000)">
                    <g id="ReviewLong">
                        <rect id="Background" x="0" y="0" width="446" height="250"></rect>
                        <g id="Group">
                            <rect id="Rectangle" fill="#EEF0F5" fill-rule="nonzero" x="0" y="0" width="446" height="250" rx="10"></rect>
                            <text id="I-like-the-workouts" font-family="Raleway-Regular, Raleway" font-size="16" font-weight="normal" letter-spacing="0.4" fill="#333333">
                                <tspan x="32" y="81">The idea behind this app is awesome! I love </tspan>
                                <tspan x="32" y="100">seeing all my results in one place, but there </tspan>
                                <tspan x="32" y="119">could be more features. There are no analytics </tspan>
                                <tspan x="32" y="138">based on race results, which is too bad. I’d like to </tspan>
                                <tspan x="32" y="157">be able to view races by distances and have a </tspan>
                                <tspan x="32" y="176">chart of my historic pace/ finish times. I’d also </tspan>
                                <tspan x="32" y="195">like the ability to add pictures or other files to the </tspan>
                                <tspan x="32" y="214">races (certificates, bages and etc)</tspan>
                            </text>
                        </g>
                    </g>
                    <g id="stars" transform="translate(32.000000, 27.000000)">
                        <polygon id="Star" fill="#FF7A0D" points="8.18181818 11.4545455 3.37266612 14.8010481 5.06926954 9.19314654 0.400446685 5.65349732 6.25815733 5.53412616 8.18181818 0 10.105479 5.53412616 15.9631897 5.65349732 11.2943668 9.19314654 12.9909702 14.8010481"></polygon>
                        <polygon id="Star" fill="#FF7A0D" points="27.2727273 11.4545455 22.4635752 14.8010481 24.1601786 9.19314654 19.4913558 5.65349732 25.3490664 5.53412616 27.2727273 0 29.1963881 5.53412616 35.0540988 5.65349732 30.3852759 9.19314654 32.0818793 14.8010481"></polygon>
                        <polygon id="Star" fill="#FF7A0D" points="46.3636364 11.4545455 41.5544843 14.8010481 43.2510877 9.19314654 38.5822649 5.65349732 44.4399755 5.53412616 46.3636364 0 48.2872972 5.53412616 54.1450079 5.65349732 49.476185 9.19314654 51.1727884 14.8010481"></polygon>
                        <polygon id="Star" stroke="#FF7A0D" fill="#FF7A0D" points="65.4545455 11.4545455 60.6453934 14.8010481 62.3419968 9.19314654 57.673174 5.65349732 63.5308846 5.53412616 65.4545455 0 67.3782063 5.53412616 73.235917 5.65349732 68.5670941 9.19314654 70.2636975 14.8010481"></polygon>
                        <polygon id="Star" stroke="#FF7A0D" points="84.5454545 11.4545455 79.7363025 14.8010481 81.4329059 9.19314654 76.764083 5.65349732 82.6217937 5.53412616 84.5454545 0 86.4691154 5.53412616 92.326826 5.65349732 87.6580032 9.19314654 89.3546066 14.8010481"></polygon>
                    </g>
                </g>
            </g>
        </g>
    </g>
</svg>